<?xml version="1.0" encoding="UTF-8"?>
<svg version="1.1" baseProfile="full"
     xmlns="http://www.w3.org/2000/svg"
     width="8000" height="6000" viewBox="0 0 8000 6000">

  <!--
    2BHK Floor Plan in SVG
    Overall outer rectangle: 8000 x 6000
    Wall thickness: ~200
    Partition walls, door arcs, window lines, and room labels.
  -->

  <title>2BHK Floor Plan</title>
  <desc>A simple 2BHK plan with walls, doors, windows, and text labels in SVG format.</desc>

  <!-- WALLS Layer -->
  <g id="WALLS" stroke="#000000" stroke-width="2" fill="none">
    <!-- Outer Walls (with gap at bottom for main door) -->
    <!-- Outer perimeter lines -->
    <line x1="0"   y1="0"   x2="3400" y2="0"   />
    <line x1="3600" y1="0"   x2="8000" y2="0"   />
    <line x1="8000" y1="0"   x2="8000" y2="6000"/>
    <line x1="8000" y1="6000" x2="0"    y2="6000"/>
    <line x1="0"    y1="6000" x2="0"    y2="0"   />

    <!-- Inner offset for outer walls (to create thickness ~200mm) -->
    <line x1="200"  y1="200"  x2="3400" y2="200"  />
    <line x1="3600" y1="200"  x2="7800" y2="200"  />
    <line x1="7800" y1="200"  x2="7800" y2="5800" />
    <line x1="7800" y1="5800" x2="200"  y2="5800" />
    <line x1="200"  y1="5800" x2="200"  y2="200"  />

    <!-- Horizontal Partition (two parallel lines, gap for a door at x=3700..3800) -->
    <!-- Lower line of partition -->
    <line x1="200"  y1="3000" x2="3700" y2="3000"/>
    <line x1="3800" y1="3000" x2="7800" y2="3000"/>
    <!-- Upper line of partition -->
    <line x1="200"  y1="3200" x2="3700" y2="3200"/>
    <line x1="3800" y1="3200" x2="7800" y2="3200"/>

    <!-- Top-area vertical partition (two parallel lines) -->
    <line x1="4000" y1="3200" x2="4000" y2="5800"/>
    <line x1="4200" y1="3200" x2="4200" y2="5800"/>

    <!-- Bottom-area vertical partition (two parallel lines) -->
    <line x1="4000" y1="200"  x2="4000" y2="3000"/>
    <line x1="4200" y1="200"  x2="4200" y2="3000"/>
  </g>

  <!-- DOORS Layer (arcs for door swings) -->
  <g id="DOORS" stroke="#FF0000" stroke-width="2" fill="none">
    <!-- Main door arcs (center at (3400,200), radius=1000 & 900, angle ~0 to 90°) -->
    <!-- Outer arc (radius=1000) -->
    <path d="M 4400,200 A 1000 1000 0 0 1 3400,1200" />
    <!-- Inner arc (radius=900) -->
    <path d="M 4300,200 A 900 900 0 0 1 3400,1100" />

    <!-- Interior door arcs in the horizontal partition (center at (3700,3000), radius=1000 & 900, angle ~270 to 360°) -->
    <!-- Outer arc (radius=1000). We'll draw clockwise (use sweep-flag=0). -->
    <path d="M 3700,4000 A 1000 1000 0 0 0 4700,3000" />
    <!-- Inner arc (radius=900) -->
    <path d="M 3700,3900 A 900 900 0 0 0 4600,3000" />
  </g>

  <!-- WINDOWS Layer -->
  <g id="WINDOWS" stroke="#0000FF" stroke-width="2" fill="none">
    <!-- Two windows at top wall for each bedroom -->
    <!-- Bedroom 1 window lines -->
    <line x1="600"  y1="6000" x2="1400" y2="6000" />
    <line x1="600"  y1="5800" x2="1400" y2="5800" />
    <!-- Bedroom 2 window lines -->
    <line x1="4600" y1="6000" x2="5400" y2="6000" />
    <line x1="4600" y1="5800" x2="5400" y2="5800" />
  </g>

  <!-- TEXT Layer (room labels) -->
  <!-- font-size="150" corresponds roughly to 150 'screen' units -->
  <g id="TEXT" fill="#008000" font-size="150" font-family="Arial"
     text-anchor="middle" dominant-baseline="middle">
    <!-- Top-left bedroom label -->
    <text x="2000" y="4500">BEDROOM 1</text>
    <!-- Top-right bedroom label -->
    <text x="6000" y="4500">BEDROOM 2</text>
    <!-- Bottom-left living room label -->
    <text x="2000" y="1500">LIVING ROOM</text>
    <!-- Bottom-right kitchen label -->
    <text x="6000" y="1500">KITCHEN</text>
  </g>

</svg>